<svg width="200" height="200" viewBox="0 0 200 200" fill="none" xmlns="http://www.w3.org/2000/svg">
  <!-- 空垃圾桶插圖 - 已刪除項目為空 -->
  <!-- 垃圾桶蓋 -->
  <rect x="55" y="50" width="90" height="12" rx="4" fill="#90CAF9"/>
  <rect x="85" y="42" width="30" height="12" rx="3" fill="#64B5F6"/>

  <!-- 垃圾桶身 -->
  <path d="M60 62 L70 155 Q72 160 77 160 L123 160 Q128 160 130 155 L140 62" fill="#E3F2FD" stroke="#2196F3" stroke-width="2"/>

  <!-- 垃圾桶內部線條 -->
  <line x1="80" y1="75" x2="82" y2="145" stroke="#BBDEFB" stroke-width="4" stroke-linecap="round"/>
  <line x1="100" y1="75" x2="100" y2="145" stroke="#BBDEFB" stroke-width="4" stroke-linecap="round"/>
  <line x1="120" y1="75" x2="118" y2="145" stroke="#BBDEFB" stroke-width="4" stroke-linecap="round"/>

  <!-- 閃亮效果表示乾淨 -->
  <path d="M155 70 L160 80 L170 75 L160 85 L165 95 L155 88 L145 95 L150 85 L140 80 L150 78 Z" fill="#64B5F6"/>
  <path d="M45 90 L48 96 L55 93 L50 99 L53 105 L46 101 L39 105 L42 99 L36 95 L43 93 Z" fill="#90CAF9" transform="scale(0.7) translate(20, 30)"/>
</svg>
