<svg width="200" height="200" viewBox="0 0 200 200" fill="none" xmlns="http://www.w3.org/2000/svg">
  <!-- 歡迎頁面品牌插圖 -->
  <!-- 主收據 -->
  <rect x="60" y="35" width="80" height="110" rx="6" fill="white" stroke="#2196F3" stroke-width="2"/>
  <path d="M60 35 L65 30 L70 35 L75 30 L80 35 L85 30 L90 35 L95 30 L100 35 L105 30 L110 35 L115 30 L120 35 L125 30 L130 35 L135 30 L140 35" stroke="#2196F3" stroke-width="2" fill="white"/>

  <!-- 收據內容 -->
  <rect x="72" y="55" width="56" height="6" rx="3" fill="#E3F2FD"/>
  <rect x="72" y="68" width="40" height="5" rx="2.5" fill="#BBDEFB"/>
  <rect x="72" y="80" width="48" height="5" rx="2.5" fill="#BBDEFB"/>
  <rect x="72" y="92" width="32" height="5" rx="2.5" fill="#BBDEFB"/>

  <!-- 金額區域 -->
  <rect x="72" y="110" width="56" height="20" rx="4" fill="#E3F2FD"/>
  <text x="100" y="124" font-family="Arial" font-size="12" font-weight="bold" fill="#2196F3" text-anchor="middle">$</text>

  <!-- 相機快門圈 -->
  <circle cx="145" cy="155" r="28" fill="#2196F3"/>
  <circle cx="145" cy="155" r="20" fill="white"/>
  <circle cx="145" cy="155" r="12" fill="#2196F3"/>
  <circle cx="145" cy="155" r="6" fill="#1976D2"/>

  <!-- 閃光裝飾 -->
  <circle cx="50" cy="160" r="6" fill="#64B5F6"/>
  <circle cx="35" cy="140" r="4" fill="#90CAF9"/>
  <circle cx="170" cy="50" r="5" fill="#BBDEFB"/>
  <circle cx="45" cy="55" r="3" fill="#E3F2FD"/>
</svg>
